<?xml version="1.0" encoding="UTF-8" standalone="no"?>
<!-- Created with Inkscape (http://www.inkscape.org/) -->

<svg
   version="1.1"
   id="svg1"
   width="573.11652"
   height="574.94055"
   viewBox="0 0 573.11652 574.94055"
   sodipodi:docname="bitmap.png"
   xmlns:inkscape="http://www.inkscape.org/namespaces/inkscape"
   xmlns:sodipodi="http://sodipodi.sourceforge.net/DTD/sodipodi-0.dtd"
   xmlns="http://www.w3.org/2000/svg"
   xmlns:svg="http://www.w3.org/2000/svg">
  <defs
     id="defs1" />
  <sodipodi:namedview
     id="namedview1"
     pagecolor="#ffffff"
     bordercolor="#000000"
     borderopacity="0.25"
     inkscape:showpageshadow="2"
     inkscape:pageopacity="0.0"
     inkscape:pagecheckerboard="0"
     inkscape:deskcolor="#d1d1d1" />
  <g
     inkscape:groupmode="layer"
     inkscape:label="Image"
     id="g1"
     transform="translate(-131.14268,-92.488327)">
    <g
       id="g2"
       transform="translate(22.825204,-36.520322)">
      <path
         style="fill:#00f808"
         d="M 372,701.92091 C 335.84561,698.49024 294.13685,685.84501 262.2322,668.6416 210.73912,640.87584 171.28692,601.29094 144.02245,550.03423 127.44833,518.87519 117.68247,489.2489 112.27416,453.72073 110.08858,439.36329 109.80421,391.23021 111.82385,377.5 c 9.21049,-62.61632 35.36387,-115.6274 79.5894,-161.32219 24.02668,-24.82488 59.84758,-49.88289 89.7134,-62.75774 36.21455,-15.61173 72.93837,-23.39115 110.51654,-23.41138 77.51176,-0.0417 151.72278,30.5122 206.41746,84.98554 14.56297,14.50404 23.05158,24.65576 33.88388,40.52251 44.55472,65.26208 59.54351,147.86203 41.0796,226.38064 C 653.67476,564.18146 595.08074,637.50611 519.5,674.01774 485.9962,690.2028 461.54874,697.49785 427.44221,701.4875 413.76644,703.08724 386.53488,703.30012 372,701.92091 Z"
         id="path6" />
      <path
         style="fill:#00f808"
         d="M 382.5,673.38262 C 338.27772,668.81758 315.67899,663.07485 286.03246,648.86854 269.57905,640.98423 260.59004,635.63736 247,625.65111 215.08648,602.20039 191.52392,575.74673 172.96726,542.53464 164.47672,527.33855 161.36808,520.64709 155.47808,504.88854 130.7957,438.85143 135.14468,365.10852 167.47291,301.5 205.22534,227.21889 274.93409,177.79825 360.14442,164.90382 c 11.13416,-1.68488 18.95583,-2.1763 34.85558,-2.18994 31.05253,-0.0266 51.60823,3.22692 80.56077,12.75114 37.93512,12.47914 69.90598,32.09846 99.28,60.92445 40.64965,39.89126 64.39444,85.45451 73.63044,141.28757 2.12827,12.86573 3.2239,37.25116 2.37331,52.82296 -4.42224,80.95827 -47.18075,155.75488 -115.11737,201.37252 -23.49244,15.77456 -57.57215,29.68645 -87.22715,35.60755 -21.77833,4.3484 -53.5393,7.18886 -66,5.90255 z"
         id="path5" />
      <path
         style="fill:#000000"
         d="M 373,671.93144 C 334.74592,667.1334 313.15194,661.18305 285,647.6825 243.09564,627.58684 203.65309,591.56123 179.15357,551.00564 160.95074,520.87334 148.65957,487.4518 143.47861,454 c -2.21369,-14.29302 -3.04912,-46.80546 -1.57051,-61.11895 6.09094,-58.96244 31.59846,-113.47293 72.03701,-153.94572 21.11294,-21.1308 40.9624,-35.37454 67.55489,-48.47656 52.36871,-25.80187 108.07005,-33.20423 165.50055,-21.99399 9.76554,1.90619 18.74341,4.46957 33.49945,9.56482 48.89425,16.88313 95.00677,52.26805 125.7172,96.4704 21.30324,30.66233 33.1523,59.94957 40.86267,101 2.64873,14.10198 3.75275,50.02369 2.01308,65.5 -4.88803,43.48466 -19.15032,83.39012 -42.35802,118.51653 C 565.83053,621.42807 502.70285,660.41391 427,670.51565 c -14.86736,1.98389 -43.48793,2.73427 -54,1.41579 z M 554.92628,536.25 c 1.85596,-1.51218 2.28445,-3.38078 3.15301,-13.75 1.03503,-12.35663 0.48493,-28.11484 -1.21463,-34.7939 -0.69567,-2.73391 -1.71965,-4.08325 -3.66503,-4.82953 -1.48479,-0.56959 -12.37463,-2.98751 -24.19963,-5.37314 -29.19775,-5.8905 -43.06346,-9.48601 -65.89094,-17.08615 -19.9947,-6.657 -42.22121,-16.52591 -45.43876,-20.17551 -4.39178,-4.9815 3.14613,-9.65421 35.3297,-21.90071 C 477.8085,408.90092 522.93862,397 533.92858,397 c 2.03963,0 6.00745,-0.68274 8.81737,-1.5172 8.87751,-2.63633 14.22476,-12.35364 16.33119,-29.67794 1.26135,-10.37398 -0.0648,-21.8675 -2.97741,-25.80486 -1.75553,-2.37317 -2.32498,-2.49455 -11.22454,-2.39255 -11.93067,0.13674 -23.85754,3.0428 -54.87519,13.3707 -51.6943,17.21258 -109.03305,42.94191 -121.50391,54.52185 -3.81918,3.54634 -4.40058,4.68049 -5.12627,10 -1.99823,14.64751 -0.28584,48.46459 2.70296,53.37928 4.12044,6.77551 61.75642,32.65607 108.9843,48.93773 38.88007,13.40377 58.86683,18.67132 76.08214,20.05156 0.90156,0.0723 2.60574,-0.65607 3.78706,-1.61857 z M 268,533.9793 c 6.8844,-1.51789 10.00192,-3.30843 12.75229,-7.32423 7.24643,-10.58048 73.21821,-187.00079 87.62263,-234.31853 7.23003,-23.75029 7.03726,-22.60069 4.23173,-25.23635 -6.13947,-5.76773 -39.48622,-6.73327 -52.51415,-1.52052 -5.05483,2.02254 -6.29296,4.12914 -15.74968,26.7971 -16.59718,39.78377 -31.76492,80.39359 -64.25993,172.04839 -11.00305,31.035 -20.28196,61.12775 -19.87651,64.46224 0.49065,4.03522 4.88902,6.4142 13.02977,7.04751 9.00031,0.70018 27.41748,-0.33586 34.76385,-1.95561 z"
         id="path2" />
    </g>
  </g>
</svg>
